<svg width="36" height="36" viewBox="0 0 36 36" fill="none" xmlns="http://www.w3.org/2000/svg">
<g clip-path="url(#clip0_8_1030)">
<circle cx="18" cy="18" r="18" fill="#27282A"/>
<path d="M22.9948 10.3549C21.7267 8.98568 19.9554 8.23169 18.0004 8.23169C16.0349 8.23169 14.2578 8.98112 12.9955 10.3418C11.7195 11.7175 11.0978 13.5872 11.2438 15.6061C11.5331 19.5891 14.5641 22.8292 18.0004 22.8292C21.4367 22.8292 24.4624 19.5898 24.7563 15.6074C24.9042 13.6067 24.2786 11.741 22.9948 10.3549V10.3549ZM29.4699 37.4268H6.53087C6.23062 37.4307 5.93327 37.3676 5.66046 37.2422C5.38766 37.1167 5.14625 36.932 4.95381 36.7015C4.53022 36.1951 4.35948 35.5037 4.48591 34.8045C5.03592 31.7533 6.75244 29.1903 9.45038 27.391C11.8472 25.7937 14.8834 24.9146 18.0004 24.9146C21.1173 24.9146 24.1535 25.7944 26.5504 27.391C29.2483 29.1896 30.9648 31.7527 31.5148 34.8038C31.6413 35.5031 31.4705 36.1945 31.0469 36.7008C30.8546 36.9315 30.6132 37.1163 30.3404 37.2419C30.0676 37.3675 29.7702 37.4306 29.4699 37.4268V37.4268Z" fill="url(#paint0_linear_8_1030)" fill-opacity="0.4"/>
</g>
<defs>
<linearGradient id="paint0_linear_8_1030" x1="22.3902" y1="7.90242" x2="9.65854" y2="34.6829" gradientUnits="userSpaceOnUse">
<stop stop-color="white"/>
<stop offset="1" stop-color="white" stop-opacity="0.6"/>
</linearGradient>
<clipPath id="clip0_8_1030">
<rect width="36" height="36" rx="18" fill="white"/>
</clipPath>
</defs>
</svg>
