<svg width="131" height="36" viewBox="0 0 131 36" fill="none" xmlns="http://www.w3.org/2000/svg">
<path d="M17.5263 0H18.5132L19.2829 0.0394737L20.1513 0.118421L20.8816 0.217105L21.75 0.375L22.3618 0.513158L23.2303 0.75L23.9408 0.986842L24.4934 1.18421L25.125 1.44079L25.8158 1.75658L26.5263 2.11184L27 2.38816L27.4145 2.625L27.9079 2.94079L28.3421 3.23684L28.6974 3.49342L29.2105 3.88816L29.4276 4.06579L29.6842 4.28289L29.9605 4.51974L30.4342 4.95395L31.1842 5.70395L31.3224 5.86184L31.5395 6.09868L31.7171 6.31579L31.9737 6.61184L32.2303 6.94737L32.4474 7.22368L32.7039 7.57895L33 8.01316L33.3158 8.50658L33.5526 8.90132L33.8092 9.35526L34.0461 9.80921L34.3224 10.3618L34.6184 11.0329L34.8947 11.7434L35.2105 12.6711L35.4474 13.5197L35.6645 14.4868L35.8026 15.2961L35.9013 16.0855L35.9803 17.0724L36 17.7237V18.2763L35.9803 18.9276L35.9211 19.7171L35.8618 20.25L35.7829 20.8224L35.6645 21.5132L35.5066 22.2434L35.2895 23.0526L35.0724 23.7434L34.875 24.3158L34.5987 25.0066L34.2829 25.7171L33.8487 26.5855L33.5724 27.0592L33.4145 27.3355L33.1776 27.7105L32.9211 28.1053L32.6842 28.4408L32.4276 28.7961L32.2303 29.0526L31.9737 29.3684L31.8158 29.5658L31.5592 29.8618L31.2039 30.2566L30.9276 30.5526L30.375 31.1053L30.2171 31.2434L29.9408 31.5L29.7237 31.6776L29.5263 31.8553L29.25 32.0724L28.9539 32.3092L28.6382 32.5461L28.2434 32.8224L27.8289 33.0987L27.3947 33.375L26.8816 33.6711L26.3092 33.9868L25.7171 34.2829L25.0066 34.5987L24.2961 34.875L23.5658 35.1316L22.7566 35.3684L21.9671 35.5658L21.1579 35.7237L20.5263 35.8224L19.6579 35.9211L18.8487 35.9803L18.2763 36H17.6842L17.0921 35.9803L16.0855 35.9013L15.2961 35.8026L14.3882 35.6447L13.4605 35.4276L12.75 35.2303L11.9605 34.9737L11.1316 34.6579L10.5987 34.4211L10.125 34.2039L9.45395 33.8684L8.98026 33.5921L8.625 33.3947L8.23026 33.1382L7.95395 32.9605L7.28289 32.4868L7.00658 32.2697L6.75 32.0724L6.43421 31.8158L6.23684 31.6382L6.01974 31.4605L5.70395 31.1645L5.36842 30.8487L4.97368 30.4539L4.83553 30.2961L4.63816 30.0987L4.46053 29.8816L4.24342 29.6447L4.06579 29.4276L3.80921 29.1118L3.57237 28.7961L3.29605 28.4211L2.98026 27.9671L2.78289 27.6513L2.54605 27.2763L2.28947 26.8224L2.09211 26.4671L1.75658 25.8158L1.48026 25.2039L1.24342 24.6316L0.986842 23.9408L0.75 23.2105L0.513158 22.3421L0.335526 21.5329L0.197368 20.7434L0.0789474 19.7961L0.0197368 19.0066L0 18.5526V17.4079L0.0394737 16.6579L0.0986842 16.0066L0.197368 15.2368L0.355263 14.3684L0.532895 13.5789L0.671053 13.0658L0.828947 12.5329L1.125 11.6645L1.36184 11.0724L1.55921 10.6184L1.81579 10.0658L2.05263 9.5921L2.28947 9.15789L2.60526 8.625L2.84211 8.25L3.09868 7.85526L3.35526 7.5L3.55263 7.22368L3.75 6.9671L3.98684 6.67105L4.125 6.49342L4.30263 6.29605L4.48026 6.07895L4.69737 5.84211L4.77632 5.74342H4.81579L4.85526 5.66447L5.17105 5.34868L5.30921 5.19079L5.54605 4.97368L5.72368 4.79605L5.88158 4.65789L6.13816 4.42105L6.35526 4.24342L6.63158 4.00658L6.88816 3.80921L7.16447 3.59211L7.51974 3.33553L7.91447 3.05921L8.36842 2.76316L8.78289 2.50658L9.27632 2.23026L9.49342 2.11184L9.94737 1.875L10.2632 1.71711L10.9539 1.40132L11.6645 1.125L12.0395 0.986842L12.7105 0.769737L13.5 0.552632L14.3487 0.355263L15.3553 0.177632L16.2039 0.0789474L16.9934 0.0197368L17.5263 0Z" fill="black"/>
<mask id="path-2-inside-1_8_1003" fill="white">
<path d="M23.8794 9.79004H12.136L11.7018 9.84925L11.2873 9.96767L10.9715 10.1058L10.6557 10.3032L10.3399 10.5598L10.1031 10.8164L9.92545 11.0729L9.7873 11.3098L9.66888 11.6058L9.55045 12.0203L9.2544 13.4216L9.09651 14.1519L9.07677 14.1914L8.40572 14.2111L8.42545 13.5598V13.1848L8.38598 13.0466L8.2873 12.9479L8.16888 12.8887L5.82019 12.869L5.26756 12.8887L5.14914 12.9677L5.07019 13.0664L5.05045 13.165V14.9611L5.10967 15.119L5.20835 15.1979L5.52414 15.2769L6.68861 15.4742L8.01098 15.6914H8.16888L8.32677 15.6124L8.38598 15.5335L8.40572 15.4742V14.8427H8.95835L8.80045 15.4742L8.62282 16.244L8.52414 16.3229L8.2873 16.4611L8.01098 16.6585L7.77414 16.8756L7.57677 17.0729L7.33993 17.4085L7.18203 17.6848L7.02414 18.0598L6.92545 18.4545L6.86624 18.8887L6.68861 20.9019L6.64914 21.5927V24.9085L6.70835 25.2835L6.7873 25.4808L6.92545 25.6979L7.1623 25.9348L7.33993 26.0532L7.59651 26.1519L7.7544 26.1914L9.96493 26.2111H10.557L10.8333 26.1716L11.1491 26.0532L11.3662 25.915L11.5636 25.7177L11.7215 25.4414L11.8005 25.2243L11.8399 24.9677L11.8597 24.3361H24.136L24.1557 24.9479L24.1952 25.2243L24.3136 25.5203L24.511 25.7966L24.6689 25.9348L24.886 26.0729L25.1623 26.1716L25.4583 26.2111H28.0636L28.3202 26.1716L28.5965 26.0729L28.7939 25.9545L28.9912 25.7769L29.1097 25.619L29.2281 25.3821L29.2873 25.1453L29.307 24.9677L29.3268 24.0598V21.8098L29.2873 20.9216L29.1097 18.9479L29.0505 18.494L28.9518 18.0993L28.8531 17.8427L28.6952 17.5269L28.4978 17.2308L28.3202 17.0137L28.0241 16.7177L27.6689 16.4611L27.3531 16.2835L27.2939 16.0466L27.057 14.8427L27.5702 14.8624V15.3953L27.6491 15.5729L27.7873 15.6716L27.9255 15.6914L28.7741 15.5532L30.5702 15.2571L30.8268 15.1782L30.9255 15.0598L30.9452 14.9808V13.0861L30.886 12.9874L30.7281 12.8887L30.5505 12.869H28.0044L27.7873 12.8887L27.6689 12.9677L27.5899 13.0861L27.5702 13.4019V14.2111L26.9189 14.1914L26.8202 13.7769L26.5241 12.3953L26.3662 11.7242L26.2478 11.4282L26.1097 11.1519L25.9518 10.915L25.7149 10.6387L25.5768 10.5006L25.3005 10.2835L24.9452 10.0664L24.5505 9.90846L24.2149 9.82951L23.8794 9.79004Z"/>
</mask>
<path d="M23.8794 9.79004H12.136L11.7018 9.84925L11.2873 9.96767L10.9715 10.1058L10.6557 10.3032L10.3399 10.5598L10.1031 10.8164L9.92545 11.0729L9.7873 11.3098L9.66888 11.6058L9.55045 12.0203L9.2544 13.4216L9.09651 14.1519L9.07677 14.1914L8.40572 14.2111L8.42545 13.5598V13.1848L8.38598 13.0466L8.2873 12.9479L8.16888 12.8887L5.82019 12.869L5.26756 12.8887L5.14914 12.9677L5.07019 13.0664L5.05045 13.165V14.9611L5.10967 15.119L5.20835 15.1979L5.52414 15.2769L6.68861 15.4742L8.01098 15.6914H8.16888L8.32677 15.6124L8.38598 15.5335L8.40572 15.4742V14.8427H8.95835L8.80045 15.4742L8.62282 16.244L8.52414 16.3229L8.2873 16.4611L8.01098 16.6585L7.77414 16.8756L7.57677 17.0729L7.33993 17.4085L7.18203 17.6848L7.02414 18.0598L6.92545 18.4545L6.86624 18.8887L6.68861 20.9019L6.64914 21.5927V24.9085L6.70835 25.2835L6.7873 25.4808L6.92545 25.6979L7.1623 25.9348L7.33993 26.0532L7.59651 26.1519L7.7544 26.1914L9.96493 26.2111H10.557L10.8333 26.1716L11.1491 26.0532L11.3662 25.915L11.5636 25.7177L11.7215 25.4414L11.8005 25.2243L11.8399 24.9677L11.8597 24.3361H24.136L24.1557 24.9479L24.1952 25.2243L24.3136 25.5203L24.511 25.7966L24.6689 25.9348L24.886 26.0729L25.1623 26.1716L25.4583 26.2111H28.0636L28.3202 26.1716L28.5965 26.0729L28.7939 25.9545L28.9912 25.7769L29.1097 25.619L29.2281 25.3821L29.2873 25.1453L29.307 24.9677L29.3268 24.0598V21.8098L29.2873 20.9216L29.1097 18.9479L29.0505 18.494L28.9518 18.0993L28.8531 17.8427L28.6952 17.5269L28.4978 17.2308L28.3202 17.0137L28.0241 16.7177L27.6689 16.4611L27.3531 16.2835L27.2939 16.0466L27.057 14.8427L27.5702 14.8624V15.3953L27.6491 15.5729L27.7873 15.6716L27.9255 15.6914L28.7741 15.5532L30.5702 15.2571L30.8268 15.1782L30.9255 15.0598L30.9452 14.9808V13.0861L30.886 12.9874L30.7281 12.8887L30.5505 12.869H28.0044L27.7873 12.8887L27.6689 12.9677L27.5899 13.0861L27.5702 13.4019V14.2111L26.9189 14.1914L26.8202 13.7769L26.5241 12.3953L26.3662 11.7242L26.2478 11.4282L26.1097 11.1519L25.9518 10.915L25.7149 10.6387L25.5768 10.5006L25.3005 10.2835L24.9452 10.0664L24.5505 9.90846L24.2149 9.82951L23.8794 9.79004Z" fill="black" stroke="black" stroke-width="4" mask="url(#path-2-inside-1_8_1003)"/>
<path d="M9.36621 23.7898L9.43262 23.6746L9.51172 23.5369L9.57617 23.4236L9.68848 23.3562L9.78711 23.2966L9.87793 23.2429L9.98242 23.2292L10.1396 23.2097L10.1699 23.2058H10.2002L13.8936 23.1882L13.9062 22.238V22.1921L13.916 22.1472L13.9551 21.95L13.9902 21.7771L14.125 21.6638L14.2441 21.5652L14.3721 21.4587L14.5381 21.45L14.9131 21.4304L14.9258 21.4294H21.1982L21.2207 21.4314L21.4385 21.4509L21.5469 21.4607L21.6406 21.5154L21.7793 21.5945L21.8691 21.6453L21.9307 21.7283L21.9902 21.8074L22.0586 21.8982L22.0801 22.0095L22.1006 22.1082L22.1104 22.156V23.1882L25.915 23.2058H26.0049L26.0879 23.238L26.2461 23.2966L26.3887 23.3503L26.4775 23.4744L26.5762 23.613L26.6689 23.7429V24.2136L26.6035 24.3289L26.5244 24.4666L26.457 24.5857L26.3379 24.6531L26.2002 24.7322L26.0889 24.7957L25.9609 24.7976L25.2881 24.8083V24.9001L25.3125 24.9656L25.3525 25.0193L25.4023 25.0623L25.4385 25.0808H28.0088L28.0547 25.0701L28.0566 25.0691L28.1689 24.8435H28.1758V21.5935L28.1377 20.8289L28.001 19.2791L27.9443 18.7468L27.8799 18.4607L27.8018 18.24L27.6602 17.9734L27.5195 17.7917H27.3486L27.2646 17.5388L27.0986 17.4138L26.874 17.2849L26.6621 17.1941L26.3506 17.1121L26.084 17.0808H9.8291L9.55078 17.1267L9.26855 17.2214L9.00195 17.3552L8.78906 17.4929L8.63379 17.6326L8.55469 17.7117L8.43164 17.8494L8.28809 18.073L8.16016 18.3298L8.06738 18.6238L8.01465 18.988L7.83984 20.9675V20.9685L7.80078 21.6931V24.8601L7.81738 24.9431L7.83789 24.9841L7.87207 25.0242L7.94629 25.074L7.96289 25.0808H10.5879L10.6299 25.0652L10.7139 24.989L10.748 24.8074L10.2119 24.7976L10.168 24.7966L10.124 24.7878L9.92676 24.7488L9.80176 24.7234L9.7041 24.6423L9.58594 24.5437L9.50586 24.4773L9.45898 24.3835L9.41895 24.3044L9.36621 24.199V23.7898Z" fill="white" stroke="white"/>
<path d="M12.7077 10.3955H12.2143L11.8788 10.435L11.5432 10.5336L11.2275 10.6915L11.0104 10.8297L10.813 10.9876L10.6354 11.1652L10.4577 11.4218L10.2998 11.7178L10.1814 12.1126L10.0038 12.9415L9.49061 15.3889L9.37219 15.9415L9.76693 15.9613H11.2472L26.6222 15.9415L26.6025 15.7639L25.9117 12.4678L25.7932 11.9547L25.6748 11.6389L25.5367 11.3823L25.3393 11.1257L25.1025 10.8889L24.9051 10.7507L24.7275 10.6521L24.5696 10.5731L24.2932 10.4744L23.9775 10.4152L12.7077 10.3955Z" fill="#582FFF"/>
<path d="M9.54919 19.1762L9.44763 19.1967L9.40271 19.2153L9.34998 19.2524L9.30603 19.313L9.25037 19.4467L9.22693 19.5698V19.7661L9.2572 19.9018L9.3158 20.0258L9.3656 20.0864L9.38806 20.1059L9.41052 20.1186L9.5199 20.1528L9.54626 20.1567H12.4242L12.5004 20.1401L12.5931 20.1001L12.6576 20.0551L12.7084 20.0092L12.7621 19.9253L12.7924 19.8481V19.8012L12.4926 19.729L11.0668 19.4546L9.65662 19.1821L9.61462 19.1762H9.54919Z" fill="black" stroke="black" stroke-width="2"/>
<path d="M26.1163 19.2172L25.5099 19.3217L23.9982 19.6117V19.6127L23.0577 19.8002L22.9982 19.8187L23.0079 19.8607L23.0704 19.9838L23.1261 20.0541L23.1632 20.0912L23.2345 20.1351L23.2726 20.1488L23.3185 20.1576H26.1945L26.2872 20.1429L26.3917 20.1078L26.4083 20.098L26.4347 20.0707L26.4904 19.974L26.5284 19.8744L26.5519 19.7562V19.5902L26.5284 19.4652L26.4806 19.3461L26.4513 19.3002L26.3995 19.2484L26.3673 19.2289L26.338 19.2172H26.1163Z" fill="black" stroke="black" stroke-width="2"/>
<mask id="path-7-inside-2_8_1003" fill="white">
<path d="M20.9591 22.5371H15.0381L15.0184 22.5568V23.6818H17.9888H20.9591L20.9789 23.6621V22.5568L20.9591 22.5371Z"/>
</mask>
<path d="M20.9591 22.5371H15.0381L15.0184 22.5568V23.6818H17.9888H20.9591L20.9789 23.6621V22.5568L20.9591 22.5371Z" fill="black"/>
<path d="M20.9591 22.5371V20.5371H21.7876L22.3734 21.1229L20.9591 22.5371ZM15.0381 22.5371L13.6239 21.1229L14.2097 20.5371H15.0381V22.5371ZM15.0184 22.5568H13.0184V21.7284L13.6041 21.1426L15.0184 22.5568ZM15.0184 23.6818V25.6818H13.0184V23.6818H15.0184ZM20.9591 23.6818L22.3734 25.096L21.7876 25.6818H20.9591V23.6818ZM20.9789 23.6621H22.9789V24.4905L22.3931 25.0763L20.9789 23.6621ZM20.9789 22.5568L22.3931 21.1426L22.9789 21.7284V22.5568H20.9789ZM20.9591 22.5371V24.5371H15.0381V22.5371V20.5371H20.9591V22.5371ZM15.0381 22.5371L16.4523 23.9513L16.4326 23.971L15.0184 22.5568L13.6041 21.1426L13.6239 21.1229L15.0381 22.5371ZM15.0184 22.5568H17.0184V23.6818H15.0184H13.0184V22.5568H15.0184ZM20.9591 23.6818L19.5449 22.2676L19.5647 22.2479L20.9789 23.6621L22.3931 25.0763L22.3734 25.096L20.9591 23.6818ZM20.9789 23.6621H18.9789V22.5568H20.9789H22.9789V23.6621H20.9789ZM20.9789 22.5568L19.5647 23.971L19.5449 23.9513L20.9591 22.5371L22.3734 21.1229L22.3931 21.1426L20.9789 22.5568ZM15.0184 23.6818V21.6818H17.9888V23.6818V25.6818H15.0184V23.6818ZM17.9888 23.6818V21.6818H20.9591V23.6818V25.6818H17.9888V23.6818Z" fill="black" mask="url(#path-7-inside-2_8_1003)"/>
<mask id="path-9-inside-3_8_1003" fill="white">
<path d="M9.65017 18.7735L9.43307 18.7932L9.19622 18.8919L9.03833 19.0301L8.90017 19.2472L8.82122 19.5038V19.8393L8.90017 20.0959L9.03833 20.2932L9.19622 20.4314L9.37386 20.5103L9.4528 20.5301H12.5515L12.7489 20.4511L12.9857 20.234L13.1239 20.0367L13.1633 19.938V19.6814L13.0646 19.5432L12.9068 19.4643L12.6107 19.3853L11.0712 19.0696L9.76859 18.7932L9.65017 18.7735Z"/>
</mask>
<path d="M9.65017 18.7735L9.43307 18.7932L9.19622 18.8919L9.03833 19.0301L8.90017 19.2472L8.82122 19.5038V19.8393L8.90017 20.0959L9.03833 20.2932L9.19622 20.4314L9.37386 20.5103L9.4528 20.5301H12.5515L12.7489 20.4511L12.9857 20.234L13.1239 20.0367L13.1633 19.938V19.6814L13.0646 19.5432L12.9068 19.4643L12.6107 19.3853L11.0712 19.0696L9.76859 18.7932L9.65017 18.7735Z" fill="black"/>
<path d="M9.65017 18.7735L9.4691 16.7817L9.72526 16.7584L9.97897 16.8007L9.65017 18.7735ZM9.43307 18.7932L8.66384 16.9471L8.94676 16.8292L9.252 16.8014L9.43307 18.7932ZM9.19622 18.8919L7.87922 17.3868L8.12524 17.1715L8.42699 17.0458L9.19622 18.8919ZM9.03833 19.0301L7.35101 17.9563L7.50519 17.714L7.72132 17.5249L9.03833 19.0301ZM8.90017 19.2472L6.98861 18.659L7.06797 18.4011L7.21285 18.1734L8.90017 19.2472ZM8.82122 19.5038H6.82122V19.203L6.90967 18.9156L8.82122 19.5038ZM8.82122 19.8393L6.90967 20.4275L6.82122 20.14V19.8393H8.82122ZM8.90017 20.0959L7.26171 21.2428L7.08119 20.9849L6.98861 20.684L8.90017 20.0959ZM9.03833 20.2932L7.72132 21.7984L7.53888 21.6388L7.39987 21.4402L9.03833 20.2932ZM9.19622 20.4314L8.38395 22.259L8.10716 22.136L7.87922 21.9365L9.19622 20.4314ZM9.37386 20.5103L8.88878 22.4506L8.72029 22.4085L8.56158 22.338L9.37386 20.5103ZM9.4528 20.5301V22.5301H9.20659L8.96773 22.4704L9.4528 20.5301ZM12.5515 20.5301L13.2943 22.387L12.9367 22.5301H12.5515V20.5301ZM12.7489 20.4511L14.1003 21.9254L13.8309 22.1724L13.4916 22.3081L12.7489 20.4511ZM12.9857 20.234L14.6242 21.3809L14.4986 21.5604L14.3371 21.7083L12.9857 20.234ZM13.1239 20.0367L14.9808 20.7794L14.8949 20.9941L14.7623 21.1836L13.1239 20.0367ZM13.1633 19.938H15.1633V20.3231L15.0203 20.6808L13.1633 19.938ZM13.1633 19.6814L14.7908 18.5189L15.1633 19.0405V19.6814H13.1633ZM13.0646 19.5432L13.9591 17.7544L14.4034 17.9765L14.6921 18.3808L13.0646 19.5432ZM12.9068 19.4643L13.4221 17.5318L13.6189 17.5843L13.8012 17.6754L12.9068 19.4643ZM12.6107 19.3853L13.0126 17.4261L13.0697 17.4378L13.126 17.4529L12.6107 19.3853ZM11.0712 19.0696L10.6693 21.0288L10.6562 21.026L11.0712 19.0696ZM9.76859 18.7932L10.0974 16.8204L10.1407 16.8277L10.1836 16.8368L9.76859 18.7932ZM9.65017 18.7735L9.83124 20.7653L9.61414 20.785L9.43307 18.7932L9.252 16.8014L9.4691 16.7817L9.65017 18.7735ZM9.43307 18.7932L10.2023 20.6394L9.96546 20.7381L9.19622 18.8919L8.42699 17.0458L8.66384 16.9471L9.43307 18.7932ZM9.19622 18.8919L10.5132 20.3971L10.3553 20.5352L9.03833 19.0301L7.72132 17.5249L7.87922 17.3868L9.19622 18.8919ZM9.03833 19.0301L10.7257 20.1038L10.5875 20.3209L8.90017 19.2472L7.21285 18.1734L7.35101 17.9563L9.03833 19.0301ZM8.90017 19.2472L10.8117 19.8354L10.7328 20.0919L8.82122 19.5038L6.90967 18.9156L6.98861 18.659L8.90017 19.2472ZM8.82122 19.5038H10.8212V19.8393H8.82122H6.82122V19.5038H8.82122ZM8.82122 19.8393L10.7328 19.2511L10.8117 19.5077L8.90017 20.0959L6.98861 20.684L6.90967 20.4275L8.82122 19.8393ZM8.90017 20.0959L10.5386 18.9489L10.6768 19.1463L9.03833 20.2932L7.39987 21.4402L7.26171 21.2428L8.90017 20.0959ZM9.03833 20.2932L10.3553 18.7881L10.5132 18.9262L9.19622 20.4314L7.87922 21.9365L7.72132 21.7984L9.03833 20.2932ZM9.19622 20.4314L10.0085 18.6038L10.1861 18.6827L9.37386 20.5103L8.56158 22.338L8.38395 22.259L9.19622 20.4314ZM9.37386 20.5103L9.85893 18.5701L9.93788 18.5898L9.4528 20.5301L8.96773 22.4704L8.88878 22.4506L9.37386 20.5103ZM9.4528 20.5301V18.5301H12.5515V20.5301V22.5301H9.4528V20.5301ZM12.5515 20.5301L11.8087 18.6731L12.0061 18.5942L12.7489 20.4511L13.4916 22.3081L13.2943 22.387L12.5515 20.5301ZM12.7489 20.4511L11.3974 18.9768L11.6342 18.7597L12.9857 20.234L14.3371 21.7083L14.1003 21.9254L12.7489 20.4511ZM12.9857 20.234L11.3472 19.0871L11.4854 18.8897L13.1239 20.0367L14.7623 21.1836L14.6242 21.3809L12.9857 20.234ZM13.1239 20.0367L11.2669 19.2939L11.3064 19.1952L13.1633 19.938L15.0203 20.6808L14.9808 20.7794L13.1239 20.0367ZM13.1633 19.938H11.1633V19.6814H13.1633H15.1633V19.938H13.1633ZM13.1633 19.6814L11.5359 20.8439L11.4372 20.7057L13.0646 19.5432L14.6921 18.3808L14.7908 18.5189L13.1633 19.6814ZM13.0646 19.5432L12.1702 21.3321L12.0123 21.2531L12.9068 19.4643L13.8012 17.6754L13.9591 17.7544L13.0646 19.5432ZM12.9068 19.4643L12.3914 21.3968L12.0954 21.3178L12.6107 19.3853L13.126 17.4529L13.4221 17.5318L12.9068 19.4643ZM12.6107 19.3853L12.2088 21.3445L10.6693 21.0288L11.0712 19.0696L11.4731 17.1103L13.0126 17.4261L12.6107 19.3853ZM11.0712 19.0696L10.6562 21.026L9.35358 20.7497L9.76859 18.7932L10.1836 16.8368L11.4862 17.1131L11.0712 19.0696ZM9.76859 18.7932L9.43979 20.766L9.32137 20.7463L9.65017 18.7735L9.97897 16.8007L10.0974 16.8204L9.76859 18.7932Z" fill="#582FFF" mask="url(#path-9-inside-3_8_1003)"/>
<mask id="path-11-inside-4_8_1003" fill="white">
<path d="M26.3471 18.8062H26.0313L23.9787 19.201L23.0116 19.3983L22.8142 19.4576L22.6958 19.5365L22.5971 19.6747L22.5774 19.7339V19.872L22.6563 20.0497L22.7747 20.2273L22.9326 20.3852L23.1695 20.5036L23.2484 20.5233H26.3274L26.5247 20.4444L26.7024 20.3062L26.8405 20.1089L26.9195 19.8918L26.9392 19.7931V19.5365L26.88 19.2997L26.7616 19.0628L26.6037 18.9247L26.4063 18.826L26.3471 18.8062Z"/>
</mask>
<path d="M26.3471 18.8062H26.0313L23.9787 19.201L23.0116 19.3983L22.8142 19.4576L22.6958 19.5365L22.5971 19.6747L22.5774 19.7339V19.872L22.6563 20.0497L22.7747 20.2273L22.9326 20.3852L23.1695 20.5036L23.2484 20.5233H26.3274L26.5247 20.4444L26.7024 20.3062L26.8405 20.1089L26.9195 19.8918L26.9392 19.7931V19.5365L26.88 19.2997L26.7616 19.0628L26.6037 18.9247L26.4063 18.826L26.3471 18.8062Z" fill="white"/>
<path d="M26.3471 18.8062V16.8062H26.6717L26.9796 16.9089L26.3471 18.8062ZM26.0313 18.8062L25.6536 16.8422L25.8408 16.8062H26.0313V18.8062ZM23.9787 19.201L23.5788 17.2414L23.5899 17.2391L23.601 17.237L23.9787 19.201ZM23.0116 19.3983L22.4369 17.4827L22.5233 17.4568L22.6117 17.4387L23.0116 19.3983ZM22.8142 19.4576L21.7048 17.7935L21.9534 17.6277L22.2395 17.5419L22.8142 19.4576ZM22.6958 19.5365L21.0683 18.374L21.2814 18.0757L21.5864 17.8724L22.6958 19.5365ZM22.5971 19.6747L20.6997 19.0422L20.7948 18.7569L20.9696 18.5122L22.5971 19.6747ZM22.5774 19.7339H20.5774V19.4093L20.68 19.1014L22.5774 19.7339ZM22.5774 19.872L20.7497 20.6843L20.5774 20.2965V19.872H22.5774ZM22.6563 20.0497L20.9922 21.1591L20.8978 21.0175L20.8287 20.8619L22.6563 20.0497ZM22.7747 20.2273L21.3605 21.6415L21.2205 21.5015L21.1106 21.3367L22.7747 20.2273ZM22.9326 20.3852L22.0382 22.174L21.7479 22.0289L21.5184 21.7994L22.9326 20.3852ZM23.1695 20.5036L22.6844 22.4439L22.4714 22.3907L22.275 22.2925L23.1695 20.5036ZM23.2484 20.5233V22.5233H23.0022L22.7633 22.4636L23.2484 20.5233ZM26.3274 20.5233L27.0701 22.3803L26.7125 22.5233H26.3274V20.5233ZM26.5247 20.4444L27.7526 22.0231L27.5297 22.1965L27.2675 22.3014L26.5247 20.4444ZM26.7024 20.3062L28.3408 21.4532L28.1681 21.7L27.9302 21.8849L26.7024 20.3062ZM26.8405 20.1089L28.7201 20.7924L28.6301 21.04L28.479 21.2558L26.8405 20.1089ZM26.9195 19.8918L28.8806 20.284L28.8509 20.4327L28.7991 20.5753L26.9195 19.8918ZM26.9392 19.7931H28.9392V19.9911L28.9004 20.1853L26.9392 19.7931ZM26.9392 19.5365L28.8795 19.0514L28.9392 19.2903V19.5365H26.9392ZM26.88 19.2997L28.6689 18.4052L28.767 18.6016L28.8203 18.8146L26.88 19.2997ZM26.7616 19.0628L28.0786 17.5577L28.3746 17.8166L28.5504 18.1684L26.7616 19.0628ZM26.6037 18.9247L27.4981 17.1358L27.7276 17.2506L27.9207 17.4195L26.6037 18.9247ZM26.4063 18.826L27.0388 16.9286L27.1736 16.9736L27.3007 17.0371L26.4063 18.826ZM26.3471 18.8062V20.8062H26.0313V18.8062V16.8062H26.3471V18.8062ZM26.0313 18.8062L26.409 20.7703L24.3564 21.165L23.9787 19.201L23.601 17.237L25.6536 16.8422L26.0313 18.8062ZM23.9787 19.201L24.3786 21.1606L23.4115 21.358L23.0116 19.3983L22.6117 17.4387L23.5788 17.2414L23.9787 19.201ZM23.0116 19.3983L23.5863 21.314L23.3889 21.3732L22.8142 19.4576L22.2395 17.5419L22.4369 17.4827L23.0116 19.3983ZM22.8142 19.4576L23.9236 21.1217L23.8052 21.2006L22.6958 19.5365L21.5864 17.8724L21.7048 17.7935L22.8142 19.4576ZM22.6958 19.5365L24.3233 20.699L24.2246 20.8371L22.5971 19.6747L20.9696 18.5122L21.0683 18.374L22.6958 19.5365ZM22.5971 19.6747L24.4945 20.3071L24.4747 20.3663L22.5774 19.7339L20.68 19.1014L20.6997 19.0422L22.5971 19.6747ZM22.5774 19.7339H24.5774V19.872H22.5774H20.5774V19.7339H22.5774ZM22.5774 19.872L24.405 19.0598L24.4839 19.2374L22.6563 20.0497L20.8287 20.8619L20.7497 20.6843L22.5774 19.872ZM22.6563 20.0497L24.3204 18.9403L24.4388 19.1179L22.7747 20.2273L21.1106 21.3367L20.9922 21.1591L22.6563 20.0497ZM22.7747 20.2273L24.1889 18.8131L24.3468 18.971L22.9326 20.3852L21.5184 21.7994L21.3605 21.6415L22.7747 20.2273ZM22.9326 20.3852L23.8271 18.5963L24.0639 18.7148L23.1695 20.5036L22.275 22.2925L22.0382 22.174L22.9326 20.3852ZM23.1695 20.5036L23.6545 18.5633L23.7335 18.5831L23.2484 20.5233L22.7633 22.4636L22.6844 22.4439L23.1695 20.5036ZM23.2484 20.5233V18.5233H26.3274V20.5233V22.5233H23.2484V20.5233ZM26.3274 20.5233L25.5846 18.6664L25.782 18.5874L26.5247 20.4444L27.2675 22.3014L27.0701 22.3803L26.3274 20.5233ZM26.5247 20.4444L25.2969 18.8657L25.4745 18.7275L26.7024 20.3062L27.9302 21.8849L27.7526 22.0231L26.5247 20.4444ZM26.7024 20.3062L25.0639 19.1593L25.2021 18.962L26.8405 20.1089L28.479 21.2558L28.3408 21.4532L26.7024 20.3062ZM26.8405 20.1089L24.9609 19.4254L25.0399 19.2083L26.9195 19.8918L28.7991 20.5753L28.7201 20.7924L26.8405 20.1089ZM26.9195 19.8918L24.9583 19.4995L24.978 19.4009L26.9392 19.7931L28.9004 20.1853L28.8806 20.284L26.9195 19.8918ZM26.9392 19.7931H24.9392V19.5365H26.9392H28.9392V19.7931H26.9392ZM26.9392 19.5365L24.9989 20.0216L24.9397 19.7847L26.88 19.2997L28.8203 18.8146L28.8795 19.0514L26.9392 19.5365ZM26.88 19.2997L25.0911 20.1941L24.9727 19.9573L26.7616 19.0628L28.5504 18.1684L28.6689 18.4052L26.88 19.2997ZM26.7616 19.0628L25.4446 20.568L25.2867 20.4298L26.6037 18.9247L27.9207 17.4195L28.0786 17.5577L26.7616 19.0628ZM26.6037 18.9247L25.7093 20.7135L25.5119 20.6148L26.4063 18.826L27.3007 17.0371L27.4981 17.1358L26.6037 18.9247ZM26.4063 18.826L25.7739 20.7233L25.7146 20.7036L26.3471 18.8062L26.9796 16.9089L27.0388 16.9286L26.4063 18.826Z" fill="black" mask="url(#path-11-inside-4_8_1003)"/>
<mask id="path-13-inside-5_8_1003" fill="white">
<path d="M7.77315 13.4963H5.72052L5.70078 13.5161V14.6411L5.77973 14.6805L7.6942 14.9963H7.81262V13.5161L7.77315 13.4963Z"/>
</mask>
<path d="M7.77315 13.4963H5.72052L5.70078 13.5161V14.6411L5.77973 14.6805L7.6942 14.9963H7.81262V13.5161L7.77315 13.4963Z" fill="black"/>
<path d="M7.77315 13.4963V11.4963H8.24528L8.66758 11.7075L7.77315 13.4963ZM5.72052 13.4963L4.3063 12.0821L4.89209 11.4963H5.72052V13.4963ZM5.70078 13.5161H3.70078V12.6876L4.28657 12.1019L5.70078 13.5161ZM5.70078 14.6411L4.80635 16.4299L3.70078 15.8771V14.6411H5.70078ZM5.77973 14.6805L5.45423 16.6539L5.15582 16.6047L4.8853 16.4694L5.77973 14.6805ZM7.6942 14.9963V16.9963H7.53036L7.3687 16.9697L7.6942 14.9963ZM7.81262 14.9963H9.81262V16.9963H7.81262V14.9963ZM7.81262 13.5161L8.70705 11.7272L9.81262 12.28V13.5161H7.81262ZM7.77315 13.4963V15.4963H5.72052V13.4963V11.4963H7.77315V13.4963ZM5.72052 13.4963L7.13473 14.9106L7.11499 14.9303L5.70078 13.5161L4.28657 12.1019L4.3063 12.0821L5.72052 13.4963ZM5.70078 13.5161H7.70078V14.6411H5.70078H3.70078V13.5161H5.70078ZM5.70078 14.6411L6.59521 12.8522L6.67416 12.8917L5.77973 14.6805L4.8853 16.4694L4.80635 16.4299L5.70078 14.6411ZM5.77973 14.6805L6.10523 12.7072L8.0197 13.023L7.6942 14.9963L7.3687 16.9697L5.45423 16.6539L5.77973 14.6805ZM7.6942 14.9963V12.9963H7.81262V14.9963V16.9963H7.6942V14.9963ZM7.81262 14.9963H5.81262V13.5161H7.81262H9.81262V14.9963H7.81262ZM7.81262 13.5161L6.91819 15.3049L6.87872 15.2852L7.77315 13.4963L8.66758 11.7075L8.70705 11.7272L7.81262 13.5161Z" fill="white" mask="url(#path-13-inside-5_8_1003)"/>
<path d="M29.8789 13.4963H28.221L28.2013 13.5161V14.9963H28.3394L29.2078 14.8384L30.2736 14.6608L30.3131 14.6213V13.5358L30.2934 13.5161L29.8789 13.4963Z" fill="white"/>
<path d="M59.56 15.36C59.56 16.1067 59.38 16.8067 59.02 17.46C58.6733 18.1133 58.12 18.64 57.36 19.04C56.6133 19.44 55.6667 19.64 54.52 19.64H52.18V25H49.38V11.04H54.52C55.6 11.04 56.52 11.2267 57.28 11.6C58.04 11.9733 58.6067 12.4867 58.98 13.14C59.3667 13.7933 59.56 14.5333 59.56 15.36ZM54.4 17.38C55.1733 17.38 55.7467 17.2067 56.12 16.86C56.4933 16.5 56.68 16 56.68 15.36C56.68 14 55.92 13.32 54.4 13.32H52.18V17.38H54.4ZM64.348 11.04V25H61.548V11.04H64.348ZM76.6144 11.04V13.3H72.8944V25H70.0944V13.3H66.3744V11.04H76.6144ZM77.9773 18C77.9773 16.6267 78.284 15.4 78.8973 14.32C79.524 13.2267 80.3707 12.38 81.4373 11.78C82.5173 11.1667 83.724 10.86 85.0573 10.86C86.6173 10.86 87.984 11.26 89.1573 12.06C90.3307 12.86 91.1507 13.9667 91.6173 15.38H88.3973C88.0773 14.7133 87.624 14.2133 87.0373 13.88C86.464 13.5467 85.7973 13.38 85.0373 13.38C84.224 13.38 83.4973 13.5733 82.8573 13.96C82.2307 14.3333 81.7373 14.8667 81.3773 15.56C81.0307 16.2533 80.8573 17.0667 80.8573 18C80.8573 18.92 81.0307 19.7333 81.3773 20.44C81.7373 21.1333 82.2307 21.6733 82.8573 22.06C83.4973 22.4333 84.224 22.62 85.0373 22.62C85.7973 22.62 86.464 22.4533 87.0373 22.12C87.624 21.7733 88.0773 21.2667 88.3973 20.6H91.6173C91.1507 22.0267 90.3307 23.14 89.1573 23.94C87.9973 24.7267 86.6307 25.12 85.0573 25.12C83.724 25.12 82.5173 24.82 81.4373 24.22C80.3707 23.6067 79.524 22.76 78.8973 21.68C78.284 20.6 77.9773 19.3733 77.9773 18ZM102.569 22.34H97.0089L96.0889 25H93.1489L98.1689 11.02H101.429L106.449 25H103.489L102.569 22.34ZM101.809 20.1L99.7889 14.26L97.7689 20.1H101.809ZM115.525 25L112.445 19.56H111.125V25H108.325V11.04H113.565C114.645 11.04 115.565 11.2333 116.325 11.62C117.085 11.9933 117.652 12.5067 118.025 13.16C118.412 13.8 118.605 14.52 118.605 15.32C118.605 16.24 118.339 17.0733 117.805 17.82C117.272 18.5533 116.479 19.06 115.425 19.34L118.765 25H115.525ZM111.125 17.46H113.465C114.225 17.46 114.792 17.28 115.165 16.92C115.539 16.5467 115.725 16.0333 115.725 15.38C115.725 14.74 115.539 14.2467 115.165 13.9C114.792 13.54 114.225 13.36 113.465 13.36H111.125V17.46ZM123.938 13.3V16.8H128.638V19.02H123.938V22.72H129.238V25H121.138V11.02H129.238V13.3H123.938Z" fill="black"/>
</svg>
